<svg width="410" height="40" viewBox="0 0 410 40" fill="none" xmlns="http://www.w3.org/2000/svg">
<rect x="0.5" y="0.5" width="409" height="39" rx="7.5" fill="#F7F5F9"/>
<rect x="0.5" y="0.5" width="409" height="39" rx="7.5" stroke="#8064A2"/>
<g clip-path="url(#clip0_1_5001)">
<path d="M39.9 20C39.9 23.9027 37.0699 27.1445 33.35 27.785V22.4125H35.1141H35.1999L35.2129 22.3277L35.5676 20.0152L35.5853 19.9H35.4688H33.35V18.4993C33.35 18.1975 33.4241 17.9118 33.6048 17.7028C33.7832 17.4965 34.0785 17.35 34.5537 17.35H35.5625H35.6625V17.25V15.2812V15.1969L35.5793 15.1827L35.5625 15.2812L35.5793 15.1827L35.5793 15.1827L35.5791 15.1826L35.5785 15.1825L35.5764 15.1822L35.5683 15.1808L35.5372 15.1758C35.5101 15.1715 35.4705 15.1653 35.4203 15.1579C35.32 15.1431 35.1772 15.1235 35.0068 15.1038C34.6666 15.0645 34.2147 15.025 33.7717 15.025C32.8378 15.025 32.0547 15.3084 31.5049 15.8587C30.9549 16.4091 30.65 17.215 30.65 18.2375V19.9H28.7188H28.6188V20V22.3125V22.4125H28.7188H30.65V27.785C26.9301 27.1445 24.1 23.9027 24.1 20C24.1 15.6369 27.6369 12.1 32 12.1C36.3631 12.1 39.9 15.6369 39.9 20Z" fill="#1877F2" stroke="white" stroke-width="0.2"/>
<path d="M30.75 22.2125H28.8188V20.1H30.75H30.85V20V18.2375C30.85 17.255 31.1422 16.5046 31.6463 16.0001C32.1505 15.4954 32.8782 15.225 33.7717 15.225C34.204 15.225 34.6475 15.2636 34.9839 15.3025C35.1518 15.3219 35.2926 15.3412 35.3912 15.3558C35.4182 15.3597 35.4421 15.3634 35.4625 15.3665V17.15H34.5537C34.0351 17.15 33.6786 17.3118 33.4535 17.572C33.2309 17.8295 33.15 18.1684 33.15 18.4993V20V20.1H33.25H35.3522L35.0282 22.2125H33.25H33.15V22.3125V27.8168C32.7746 27.8716 32.3907 27.9 32 27.9C31.6093 27.9 31.2254 27.8716 30.85 27.8168V22.3125V22.2125H30.75Z" fill="white" stroke="white" stroke-width="0.2"/>
</g>
<path d="M119.49 20.1C119.49 19.1387 119.705 18.28 120.134 17.524C120.573 16.7587 121.165 16.166 121.912 15.746C122.668 15.3167 123.513 15.102 124.446 15.102C125.538 15.102 126.495 15.382 127.316 15.942C128.137 16.502 128.711 17.2767 129.038 18.266H126.784C126.56 17.7993 126.243 17.4493 125.832 17.216C125.431 16.9827 124.964 16.866 124.432 16.866C123.863 16.866 123.354 17.0013 122.906 17.272C122.467 17.5333 122.122 17.9067 121.87 18.392C121.627 18.8773 121.506 19.4467 121.506 20.1C121.506 20.744 121.627 21.3133 121.87 21.808C122.122 22.2933 122.467 22.6713 122.906 22.942C123.354 23.2033 123.863 23.334 124.432 23.334C124.964 23.334 125.431 23.2173 125.832 22.984C126.243 22.7413 126.56 22.3867 126.784 21.92H129.038C128.711 22.9187 128.137 23.698 127.316 24.258C126.504 24.8087 125.547 25.084 124.446 25.084C123.513 25.084 122.668 24.874 121.912 24.454C121.165 24.0247 120.573 23.432 120.134 22.676C119.705 21.92 119.49 21.0613 119.49 20.1ZM134.156 25.126C133.409 25.126 132.737 24.9627 132.14 24.636C131.543 24.3 131.071 23.8287 130.726 23.222C130.39 22.6153 130.222 21.9153 130.222 21.122C130.222 20.3287 130.395 19.6287 130.74 19.022C131.095 18.4153 131.575 17.9487 132.182 17.622C132.789 17.286 133.465 17.118 134.212 17.118C134.959 17.118 135.635 17.286 136.242 17.622C136.849 17.9487 137.325 18.4153 137.67 19.022C138.025 19.6287 138.202 20.3287 138.202 21.122C138.202 21.9153 138.02 22.6153 137.656 23.222C137.301 23.8287 136.816 24.3 136.2 24.636C135.593 24.9627 134.912 25.126 134.156 25.126ZM134.156 23.418C134.511 23.418 134.842 23.334 135.15 23.166C135.467 22.9887 135.719 22.7273 135.906 22.382C136.093 22.0367 136.186 21.6167 136.186 21.122C136.186 20.3847 135.99 19.82 135.598 19.428C135.215 19.0267 134.744 18.826 134.184 18.826C133.624 18.826 133.153 19.0267 132.77 19.428C132.397 19.82 132.21 20.3847 132.21 21.122C132.21 21.8593 132.392 22.4287 132.756 22.83C133.129 23.222 133.596 23.418 134.156 23.418ZM143.938 17.132C144.862 17.132 145.608 17.426 146.178 18.014C146.747 18.5927 147.032 19.4047 147.032 20.45V25H145.072V20.716C145.072 20.1 144.918 19.6287 144.61 19.302C144.302 18.966 143.882 18.798 143.35 18.798C142.808 18.798 142.379 18.966 142.062 19.302C141.754 19.6287 141.6 20.1 141.6 20.716V25H139.64V17.244H141.6V18.21C141.861 17.874 142.192 17.6127 142.594 17.426C143.004 17.23 143.452 17.132 143.938 17.132ZM151.178 18.854V22.606C151.178 22.8673 151.238 23.0587 151.36 23.18C151.49 23.292 151.705 23.348 152.004 23.348H152.914V25H151.682C150.03 25 149.204 24.1973 149.204 22.592V18.854H148.28V17.244H149.204V15.326H151.178V17.244H152.914V18.854H151.178ZM155.317 16.32C154.972 16.32 154.683 16.2127 154.449 15.998C154.225 15.774 154.113 15.4987 154.113 15.172C154.113 14.8453 154.225 14.5747 154.449 14.36C154.683 14.136 154.972 14.024 155.317 14.024C155.663 14.024 155.947 14.136 156.171 14.36C156.405 14.5747 156.521 14.8453 156.521 15.172C156.521 15.4987 156.405 15.774 156.171 15.998C155.947 16.2127 155.663 16.32 155.317 16.32ZM156.283 17.244V25H154.323V17.244H156.283ZM162.518 17.132C163.442 17.132 164.189 17.426 164.758 18.014C165.327 18.5927 165.612 19.4047 165.612 20.45V25H163.652V20.716C163.652 20.1 163.498 19.6287 163.19 19.302C162.882 18.966 162.462 18.798 161.93 18.798C161.389 18.798 160.959 18.966 160.642 19.302C160.334 19.6287 160.18 20.1 160.18 20.716V25H158.22V17.244H160.18V18.21C160.441 17.874 160.773 17.6127 161.174 17.426C161.585 17.23 162.033 17.132 162.518 17.132ZM174.798 17.244V25H172.824V24.02C172.572 24.356 172.24 24.622 171.83 24.818C171.428 25.0047 170.99 25.098 170.514 25.098C169.907 25.098 169.37 24.972 168.904 24.72C168.437 24.4587 168.068 24.0807 167.798 23.586C167.536 23.082 167.406 22.4847 167.406 21.794V17.244H169.366V21.514C169.366 22.13 169.52 22.606 169.828 22.942C170.136 23.2687 170.556 23.432 171.088 23.432C171.629 23.432 172.054 23.2687 172.362 22.942C172.67 22.606 172.824 22.13 172.824 21.514V17.244H174.798ZM183.942 20.954C183.942 21.234 183.923 21.486 183.886 21.71H178.216C178.262 22.27 178.458 22.7087 178.804 23.026C179.149 23.3433 179.574 23.502 180.078 23.502C180.806 23.502 181.324 23.1893 181.632 22.564H183.746C183.522 23.3107 183.092 23.9267 182.458 24.412C181.823 24.888 181.044 25.126 180.12 25.126C179.373 25.126 178.701 24.9627 178.104 24.636C177.516 24.3 177.054 23.8287 176.718 23.222C176.391 22.6153 176.228 21.9153 176.228 21.122C176.228 20.3193 176.391 19.6147 176.718 19.008C177.044 18.4013 177.502 17.9347 178.09 17.608C178.678 17.2813 179.354 17.118 180.12 17.118C180.857 17.118 181.515 17.2767 182.094 17.594C182.682 17.9113 183.134 18.364 183.452 18.952C183.778 19.5307 183.942 20.198 183.942 20.954ZM181.912 20.394C181.902 19.89 181.72 19.4887 181.366 19.19C181.011 18.882 180.577 18.728 180.064 18.728C179.578 18.728 179.168 18.8773 178.832 19.176C178.505 19.4653 178.304 19.8713 178.23 20.394H181.912ZM199.46 17.244L197.192 25H195.078L193.664 19.582L192.25 25H190.122L187.84 17.244H189.828L191.2 23.152L192.684 17.244H194.756L196.212 23.138L197.584 17.244H199.46ZM201.515 16.32C201.169 16.32 200.88 16.2127 200.647 15.998C200.423 15.774 200.311 15.4987 200.311 15.172C200.311 14.8453 200.423 14.5747 200.647 14.36C200.88 14.136 201.169 14.024 201.515 14.024C201.86 14.024 202.145 14.136 202.369 14.36C202.602 14.5747 202.719 14.8453 202.719 15.172C202.719 15.4987 202.602 15.774 202.369 15.998C202.145 16.2127 201.86 16.32 201.515 16.32ZM202.481 17.244V25H200.521V17.244H202.481ZM206.699 18.854V22.606C206.699 22.8673 206.76 23.0587 206.881 23.18C207.012 23.292 207.227 23.348 207.525 23.348H208.435V25H207.203C205.551 25 204.725 24.1973 204.725 22.592V18.854H203.801V17.244H204.725V15.326H206.699V17.244H208.435V18.854H206.699ZM214.213 17.132C214.801 17.132 215.324 17.2627 215.781 17.524C216.238 17.776 216.593 18.154 216.845 18.658C217.106 19.1527 217.237 19.75 217.237 20.45V25H215.277V20.716C215.277 20.1 215.123 19.6287 214.815 19.302C214.507 18.966 214.087 18.798 213.555 18.798C213.014 18.798 212.584 18.966 212.267 19.302C211.959 19.6287 211.805 20.1 211.805 20.716V25H209.845V14.64H211.805V18.21C212.057 17.874 212.393 17.6127 212.813 17.426C213.233 17.23 213.7 17.132 214.213 17.132ZM228.471 15.228V16.81H224.397V19.316H227.519V20.87H224.397V25H222.437V15.228H228.471ZM229.357 21.094C229.357 20.31 229.511 19.6147 229.819 19.008C230.136 18.4013 230.561 17.9347 231.093 17.608C231.634 17.2813 232.236 17.118 232.899 17.118C233.477 17.118 233.981 17.2347 234.411 17.468C234.849 17.7013 235.199 17.9953 235.461 18.35V17.244H237.435V25H235.461V23.866C235.209 24.23 234.859 24.5333 234.411 24.776C233.972 25.0093 233.463 25.126 232.885 25.126C232.231 25.126 231.634 24.958 231.093 24.622C230.561 24.286 230.136 23.8147 229.819 23.208C229.511 22.592 229.357 21.8873 229.357 21.094ZM235.461 21.122C235.461 20.646 235.367 20.24 235.181 19.904C234.994 19.5587 234.742 19.2973 234.425 19.12C234.107 18.9333 233.767 18.84 233.403 18.84C233.039 18.84 232.703 18.9287 232.395 19.106C232.087 19.2833 231.835 19.5447 231.639 19.89C231.452 20.226 231.359 20.6273 231.359 21.094C231.359 21.5607 231.452 21.9713 231.639 22.326C231.835 22.6713 232.087 22.9373 232.395 23.124C232.712 23.3107 233.048 23.404 233.403 23.404C233.767 23.404 234.107 23.3153 234.425 23.138C234.742 22.9513 234.994 22.69 235.181 22.354C235.367 22.0087 235.461 21.598 235.461 21.122ZM238.845 21.122C238.845 20.3193 239.008 19.6193 239.335 19.022C239.661 18.4153 240.114 17.9487 240.693 17.622C241.271 17.286 241.934 17.118 242.681 17.118C243.642 17.118 244.435 17.3607 245.061 17.846C245.695 18.322 246.12 18.994 246.335 19.862H244.221C244.109 19.526 243.917 19.2647 243.647 19.078C243.385 18.882 243.059 18.784 242.667 18.784C242.107 18.784 241.663 18.9893 241.337 19.4C241.01 19.8013 240.847 20.3753 240.847 21.122C240.847 21.8593 241.01 22.4333 241.337 22.844C241.663 23.2453 242.107 23.446 242.667 23.446C243.46 23.446 243.978 23.0913 244.221 22.382H246.335C246.12 23.222 245.695 23.8893 245.061 24.384C244.426 24.8787 243.633 25.126 242.681 25.126C241.934 25.126 241.271 24.9627 240.693 24.636C240.114 24.3 239.661 23.8333 239.335 23.236C239.008 22.6293 238.845 21.9247 238.845 21.122ZM254.981 20.954C254.981 21.234 254.962 21.486 254.925 21.71H249.255C249.301 22.27 249.497 22.7087 249.843 23.026C250.188 23.3433 250.613 23.502 251.117 23.502C251.845 23.502 252.363 23.1893 252.671 22.564H254.785C254.561 23.3107 254.131 23.9267 253.497 24.412C252.862 24.888 252.083 25.126 251.159 25.126C250.412 25.126 249.74 24.9627 249.143 24.636C248.555 24.3 248.093 23.8287 247.757 23.222C247.43 22.6153 247.267 21.9153 247.267 21.122C247.267 20.3193 247.43 19.6147 247.757 19.008C248.083 18.4013 248.541 17.9347 249.129 17.608C249.717 17.2813 250.393 17.118 251.159 17.118C251.896 17.118 252.554 17.2767 253.133 17.594C253.721 17.9113 254.173 18.364 254.491 18.952C254.817 19.5307 254.981 20.198 254.981 20.954ZM252.951 20.394C252.941 19.89 252.759 19.4887 252.405 19.19C252.05 18.882 251.616 18.728 251.103 18.728C250.617 18.728 250.207 18.8773 249.871 19.176C249.544 19.4653 249.343 19.8713 249.269 20.394H252.951ZM258.371 18.378C258.623 18.0047 258.969 17.7013 259.407 17.468C259.855 17.2347 260.364 17.118 260.933 17.118C261.596 17.118 262.193 17.2813 262.725 17.608C263.267 17.9347 263.691 18.4013 263.999 19.008C264.317 19.6053 264.475 20.3007 264.475 21.094C264.475 21.8873 264.317 22.592 263.999 23.208C263.691 23.8147 263.267 24.286 262.725 24.622C262.193 24.958 261.596 25.126 260.933 25.126C260.355 25.126 259.846 25.014 259.407 24.79C258.978 24.5567 258.633 24.258 258.371 23.894V25H256.411V14.64H258.371V18.378ZM262.473 21.094C262.473 20.6273 262.375 20.226 262.179 19.89C261.993 19.5447 261.741 19.2833 261.423 19.106C261.115 18.9287 260.779 18.84 260.415 18.84C260.061 18.84 259.725 18.9333 259.407 19.12C259.099 19.2973 258.847 19.5587 258.651 19.904C258.465 20.2493 258.371 20.6553 258.371 21.122C258.371 21.5887 258.465 21.9947 258.651 22.34C258.847 22.6853 259.099 22.9513 259.407 23.138C259.725 23.3153 260.061 23.404 260.415 23.404C260.779 23.404 261.115 23.3107 261.423 23.124C261.741 22.9373 261.993 22.6713 262.179 22.326C262.375 21.9807 262.473 21.57 262.473 21.094ZM269.344 25.126C268.597 25.126 267.925 24.9627 267.328 24.636C266.73 24.3 266.259 23.8287 265.914 23.222C265.578 22.6153 265.41 21.9153 265.41 21.122C265.41 20.3287 265.582 19.6287 265.928 19.022C266.282 18.4153 266.763 17.9487 267.37 17.622C267.976 17.286 268.653 17.118 269.4 17.118C270.146 17.118 270.823 17.286 271.43 17.622C272.036 17.9487 272.512 18.4153 272.858 19.022C273.212 19.6287 273.39 20.3287 273.39 21.122C273.39 21.9153 273.208 22.6153 272.844 23.222C272.489 23.8287 272.004 24.3 271.388 24.636C270.781 24.9627 270.1 25.126 269.344 25.126ZM269.344 23.418C269.698 23.418 270.03 23.334 270.338 23.166C270.655 22.9887 270.907 22.7273 271.094 22.382C271.28 22.0367 271.374 21.6167 271.374 21.122C271.374 20.3847 271.178 19.82 270.786 19.428C270.403 19.0267 269.932 18.826 269.372 18.826C268.812 18.826 268.34 19.0267 267.958 19.428C267.584 19.82 267.398 20.3847 267.398 21.122C267.398 21.8593 267.58 22.4287 267.944 22.83C268.317 23.222 268.784 23.418 269.344 23.418ZM278.271 25.126C277.525 25.126 276.853 24.9627 276.255 24.636C275.658 24.3 275.187 23.8287 274.841 23.222C274.505 22.6153 274.337 21.9153 274.337 21.122C274.337 20.3287 274.51 19.6287 274.855 19.022C275.21 18.4153 275.691 17.9487 276.297 17.622C276.904 17.286 277.581 17.118 278.327 17.118C279.074 17.118 279.751 17.286 280.357 17.622C280.964 17.9487 281.44 18.4153 281.785 19.022C282.14 19.6287 282.317 20.3287 282.317 21.122C282.317 21.9153 282.135 22.6153 281.771 23.222C281.417 23.8287 280.931 24.3 280.315 24.636C279.709 24.9627 279.027 25.126 278.271 25.126ZM278.271 23.418C278.626 23.418 278.957 23.334 279.265 23.166C279.583 22.9887 279.835 22.7273 280.021 22.382C280.208 22.0367 280.301 21.6167 280.301 21.122C280.301 20.3847 280.105 19.82 279.713 19.428C279.331 19.0267 278.859 18.826 278.299 18.826C277.739 18.826 277.268 19.0267 276.885 19.428C276.512 19.82 276.325 20.3847 276.325 21.122C276.325 21.8593 276.507 22.4287 276.871 22.83C277.245 23.222 277.711 23.418 278.271 23.418ZM288.347 25L285.715 21.696V25H283.755V14.64H285.715V20.534L288.319 17.244H290.867L287.451 21.136L290.895 25H288.347Z" fill="#08090A"/>
<defs>
<clipPath id="clip0_1_5001">
<rect width="16" height="16" fill="white" transform="translate(24 12)"/>
</clipPath>
</defs>
</svg>
