<svg width="410" height="40" viewBox="0 0 410 40" fill="none" xmlns="http://www.w3.org/2000/svg">
<rect x="0.5" y="0.5" width="409" height="39" rx="7.5" fill="#F7F5F9"/>
<rect x="0.5" y="0.5" width="409" height="39" rx="7.5" stroke="#8064A2"/>
<g clip-path="url(#clip0_1_5000)">
<path fill-rule="evenodd" clip-rule="evenodd" d="M27.4483 20.0001C27.4483 19.4804 27.5345 18.9822 27.6886 18.5149L24.9924 16.4561C24.4669 17.5229 24.1709 18.7252 24.1709 20.0001C24.1709 21.2739 24.4666 22.4753 24.9913 23.5416L27.686 21.4787C27.5334 21.0136 27.4483 20.5172 27.4483 20.0001Z" fill="#FBBC05"/>
<path fill-rule="evenodd" clip-rule="evenodd" d="M32.1821 15.2727C33.3109 15.2727 34.3306 15.6727 35.1317 16.3273L37.4622 14C36.0421 12.7636 34.2213 12 32.1821 12C29.0161 12 26.2951 13.8105 24.9922 16.456L27.6883 18.5149C28.3096 16.6291 30.0804 15.2727 32.1821 15.2727Z" fill="#EA4335"/>
<path fill-rule="evenodd" clip-rule="evenodd" d="M32.1821 24.7274C30.0806 24.7274 28.3097 23.371 27.6884 21.4852L24.9922 23.5437C26.2951 26.1896 29.0161 28.0001 32.1821 28.0001C34.1361 28.0001 36.0017 27.3062 37.4018 26.0062L34.8426 24.0277C34.1204 24.4826 33.2111 24.7274 32.1821 24.7274Z" fill="#34A853"/>
<path fill-rule="evenodd" clip-rule="evenodd" d="M39.8293 20.0002C39.8293 19.5275 39.7564 19.0183 39.6471 18.5457H32.1821V21.6366H36.4791C36.2643 22.6905 35.6795 23.5006 34.8426 24.0278L37.4019 26.0063C38.8726 24.6413 39.8293 22.6078 39.8293 20.0002Z" fill="#4285F4"/>
</g>
<path d="M128.49 20.1C128.49 19.1387 128.705 18.28 129.134 17.524C129.573 16.7587 130.165 16.166 130.912 15.746C131.668 15.3167 132.513 15.102 133.446 15.102C134.538 15.102 135.495 15.382 136.316 15.942C137.137 16.502 137.711 17.2767 138.038 18.266H135.784C135.56 17.7993 135.243 17.4493 134.832 17.216C134.431 16.9827 133.964 16.866 133.432 16.866C132.863 16.866 132.354 17.0013 131.906 17.272C131.467 17.5333 131.122 17.9067 130.87 18.392C130.627 18.8773 130.506 19.4467 130.506 20.1C130.506 20.744 130.627 21.3133 130.87 21.808C131.122 22.2933 131.467 22.6713 131.906 22.942C132.354 23.2033 132.863 23.334 133.432 23.334C133.964 23.334 134.431 23.2173 134.832 22.984C135.243 22.7413 135.56 22.3867 135.784 21.92H138.038C137.711 22.9187 137.137 23.698 136.316 24.258C135.504 24.8087 134.547 25.084 133.446 25.084C132.513 25.084 131.668 24.874 130.912 24.454C130.165 24.0247 129.573 23.432 129.134 22.676C128.705 21.92 128.49 21.0613 128.49 20.1ZM143.156 25.126C142.409 25.126 141.737 24.9627 141.14 24.636C140.543 24.3 140.071 23.8287 139.726 23.222C139.39 22.6153 139.222 21.9153 139.222 21.122C139.222 20.3287 139.395 19.6287 139.74 19.022C140.095 18.4153 140.575 17.9487 141.182 17.622C141.789 17.286 142.465 17.118 143.212 17.118C143.959 17.118 144.635 17.286 145.242 17.622C145.849 17.9487 146.325 18.4153 146.67 19.022C147.025 19.6287 147.202 20.3287 147.202 21.122C147.202 21.9153 147.02 22.6153 146.656 23.222C146.301 23.8287 145.816 24.3 145.2 24.636C144.593 24.9627 143.912 25.126 143.156 25.126ZM143.156 23.418C143.511 23.418 143.842 23.334 144.15 23.166C144.467 22.9887 144.719 22.7273 144.906 22.382C145.093 22.0367 145.186 21.6167 145.186 21.122C145.186 20.3847 144.99 19.82 144.598 19.428C144.215 19.0267 143.744 18.826 143.184 18.826C142.624 18.826 142.153 19.0267 141.77 19.428C141.397 19.82 141.21 20.3847 141.21 21.122C141.21 21.8593 141.392 22.4287 141.756 22.83C142.129 23.222 142.596 23.418 143.156 23.418ZM152.938 17.132C153.862 17.132 154.608 17.426 155.178 18.014C155.747 18.5927 156.032 19.4047 156.032 20.45V25H154.072V20.716C154.072 20.1 153.918 19.6287 153.61 19.302C153.302 18.966 152.882 18.798 152.35 18.798C151.808 18.798 151.379 18.966 151.062 19.302C150.754 19.6287 150.6 20.1 150.6 20.716V25H148.64V17.244H150.6V18.21C150.861 17.874 151.192 17.6127 151.594 17.426C152.004 17.23 152.452 17.132 152.938 17.132ZM160.178 18.854V22.606C160.178 22.8673 160.238 23.0587 160.36 23.18C160.49 23.292 160.705 23.348 161.004 23.348H161.914V25H160.682C159.03 25 158.204 24.1973 158.204 22.592V18.854H157.28V17.244H158.204V15.326H160.178V17.244H161.914V18.854H160.178ZM164.317 16.32C163.972 16.32 163.683 16.2127 163.449 15.998C163.225 15.774 163.113 15.4987 163.113 15.172C163.113 14.8453 163.225 14.5747 163.449 14.36C163.683 14.136 163.972 14.024 164.317 14.024C164.663 14.024 164.947 14.136 165.171 14.36C165.405 14.5747 165.521 14.8453 165.521 15.172C165.521 15.4987 165.405 15.774 165.171 15.998C164.947 16.2127 164.663 16.32 164.317 16.32ZM165.283 17.244V25H163.323V17.244H165.283ZM171.518 17.132C172.442 17.132 173.189 17.426 173.758 18.014C174.327 18.5927 174.612 19.4047 174.612 20.45V25H172.652V20.716C172.652 20.1 172.498 19.6287 172.19 19.302C171.882 18.966 171.462 18.798 170.93 18.798C170.389 18.798 169.959 18.966 169.642 19.302C169.334 19.6287 169.18 20.1 169.18 20.716V25H167.22V17.244H169.18V18.21C169.441 17.874 169.773 17.6127 170.174 17.426C170.585 17.23 171.033 17.132 171.518 17.132ZM183.798 17.244V25H181.824V24.02C181.572 24.356 181.24 24.622 180.83 24.818C180.428 25.0047 179.99 25.098 179.514 25.098C178.907 25.098 178.37 24.972 177.904 24.72C177.437 24.4587 177.068 24.0807 176.798 23.586C176.536 23.082 176.406 22.4847 176.406 21.794V17.244H178.366V21.514C178.366 22.13 178.52 22.606 178.828 22.942C179.136 23.2687 179.556 23.432 180.088 23.432C180.629 23.432 181.054 23.2687 181.362 22.942C181.67 22.606 181.824 22.13 181.824 21.514V17.244H183.798ZM192.942 20.954C192.942 21.234 192.923 21.486 192.886 21.71H187.216C187.262 22.27 187.458 22.7087 187.804 23.026C188.149 23.3433 188.574 23.502 189.078 23.502C189.806 23.502 190.324 23.1893 190.632 22.564H192.746C192.522 23.3107 192.092 23.9267 191.458 24.412C190.823 24.888 190.044 25.126 189.12 25.126C188.373 25.126 187.701 24.9627 187.104 24.636C186.516 24.3 186.054 23.8287 185.718 23.222C185.391 22.6153 185.228 21.9153 185.228 21.122C185.228 20.3193 185.391 19.6147 185.718 19.008C186.044 18.4013 186.502 17.9347 187.09 17.608C187.678 17.2813 188.354 17.118 189.12 17.118C189.857 17.118 190.515 17.2767 191.094 17.594C191.682 17.9113 192.134 18.364 192.452 18.952C192.778 19.5307 192.942 20.198 192.942 20.954ZM190.912 20.394C190.902 19.89 190.72 19.4887 190.366 19.19C190.011 18.882 189.577 18.728 189.064 18.728C188.578 18.728 188.168 18.8773 187.832 19.176C187.505 19.4653 187.304 19.8713 187.23 20.394H190.912ZM208.46 17.244L206.192 25H204.078L202.664 19.582L201.25 25H199.122L196.84 17.244H198.828L200.2 23.152L201.684 17.244H203.756L205.212 23.138L206.584 17.244H208.46ZM210.515 16.32C210.169 16.32 209.88 16.2127 209.647 15.998C209.423 15.774 209.311 15.4987 209.311 15.172C209.311 14.8453 209.423 14.5747 209.647 14.36C209.88 14.136 210.169 14.024 210.515 14.024C210.86 14.024 211.145 14.136 211.369 14.36C211.602 14.5747 211.719 14.8453 211.719 15.172C211.719 15.4987 211.602 15.774 211.369 15.998C211.145 16.2127 210.86 16.32 210.515 16.32ZM211.481 17.244V25H209.521V17.244H211.481ZM215.699 18.854V22.606C215.699 22.8673 215.76 23.0587 215.881 23.18C216.012 23.292 216.227 23.348 216.525 23.348H217.435V25H216.203C214.551 25 213.725 24.1973 213.725 22.592V18.854H212.801V17.244H213.725V15.326H215.699V17.244H217.435V18.854H215.699ZM223.213 17.132C223.801 17.132 224.324 17.2627 224.781 17.524C225.238 17.776 225.593 18.154 225.845 18.658C226.106 19.1527 226.237 19.75 226.237 20.45V25H224.277V20.716C224.277 20.1 224.123 19.6287 223.815 19.302C223.507 18.966 223.087 18.798 222.555 18.798C222.014 18.798 221.584 18.966 221.267 19.302C220.959 19.6287 220.805 20.1 220.805 20.716V25H218.845V14.64H220.805V18.21C221.057 17.874 221.393 17.6127 221.813 17.426C222.233 17.23 222.7 17.132 223.213 17.132ZM238.241 18.168C238.017 17.7573 237.709 17.4447 237.317 17.23C236.925 17.0153 236.467 16.908 235.945 16.908C235.366 16.908 234.853 17.0387 234.405 17.3C233.957 17.5613 233.607 17.9347 233.355 18.42C233.103 18.9053 232.977 19.4653 232.977 20.1C232.977 20.7533 233.103 21.3227 233.355 21.808C233.616 22.2933 233.975 22.6667 234.433 22.928C234.89 23.1893 235.422 23.32 236.029 23.32C236.775 23.32 237.387 23.124 237.863 22.732C238.339 22.3307 238.651 21.7753 238.801 21.066H235.441V19.568H240.733V21.276C240.602 21.9573 240.322 22.5873 239.893 23.166C239.463 23.7447 238.908 24.2113 238.227 24.566C237.555 24.9113 236.799 25.084 235.959 25.084C235.016 25.084 234.162 24.874 233.397 24.454C232.641 24.0247 232.043 23.432 231.605 22.676C231.175 21.92 230.961 21.0613 230.961 20.1C230.961 19.1387 231.175 18.28 231.605 17.524C232.043 16.7587 232.641 16.166 233.397 15.746C234.162 15.3167 235.011 15.102 235.945 15.102C237.046 15.102 238.003 15.3727 238.815 15.914C239.627 16.446 240.187 17.1973 240.495 18.168H238.241ZM245.627 25.126C244.88 25.126 244.208 24.9627 243.611 24.636C243.013 24.3 242.542 23.8287 242.197 23.222C241.861 22.6153 241.693 21.9153 241.693 21.122C241.693 20.3287 241.865 19.6287 242.211 19.022C242.565 18.4153 243.046 17.9487 243.653 17.622C244.259 17.286 244.936 17.118 245.683 17.118C246.429 17.118 247.106 17.286 247.713 17.622C248.319 17.9487 248.795 18.4153 249.141 19.022C249.495 19.6287 249.673 20.3287 249.673 21.122C249.673 21.9153 249.491 22.6153 249.127 23.222C248.772 23.8287 248.287 24.3 247.671 24.636C247.064 24.9627 246.383 25.126 245.627 25.126ZM245.627 23.418C245.981 23.418 246.313 23.334 246.621 23.166C246.938 22.9887 247.19 22.7273 247.377 22.382C247.563 22.0367 247.657 21.6167 247.657 21.122C247.657 20.3847 247.461 19.82 247.069 19.428C246.686 19.0267 246.215 18.826 245.655 18.826C245.095 18.826 244.623 19.0267 244.241 19.428C243.867 19.82 243.681 20.3847 243.681 21.122C243.681 21.8593 243.863 22.4287 244.227 22.83C244.6 23.222 245.067 23.418 245.627 23.418ZM254.555 25.126C253.808 25.126 253.136 24.9627 252.539 24.636C251.941 24.3 251.47 23.8287 251.125 23.222C250.789 22.6153 250.621 21.9153 250.621 21.122C250.621 20.3287 250.793 19.6287 251.139 19.022C251.493 18.4153 251.974 17.9487 252.581 17.622C253.187 17.286 253.864 17.118 254.611 17.118C255.357 17.118 256.034 17.286 256.641 17.622C257.247 17.9487 257.723 18.4153 258.069 19.022C258.423 19.6287 258.601 20.3287 258.601 21.122C258.601 21.9153 258.419 22.6153 258.055 23.222C257.7 23.8287 257.215 24.3 256.599 24.636C255.992 24.9627 255.311 25.126 254.555 25.126ZM254.555 23.418C254.909 23.418 255.241 23.334 255.549 23.166C255.866 22.9887 256.118 22.7273 256.305 22.382C256.491 22.0367 256.585 21.6167 256.585 21.122C256.585 20.3847 256.389 19.82 255.997 19.428C255.614 19.0267 255.143 18.826 254.583 18.826C254.023 18.826 253.551 19.0267 253.169 19.428C252.795 19.82 252.609 20.3847 252.609 21.122C252.609 21.8593 252.791 22.4287 253.155 22.83C253.528 23.222 253.995 23.418 254.555 23.418ZM263.076 17.118C263.655 17.118 264.164 17.2347 264.602 17.468C265.041 17.692 265.386 17.986 265.638 18.35V17.244H267.612V25.056C267.612 25.7747 267.468 26.414 267.178 26.974C266.889 27.5433 266.455 27.9913 265.876 28.318C265.298 28.654 264.598 28.822 263.776 28.822C262.675 28.822 261.77 28.5653 261.06 28.052C260.36 27.5387 259.964 26.8387 259.87 25.952H261.816C261.919 26.3067 262.138 26.5867 262.474 26.792C262.82 27.0067 263.235 27.114 263.72 27.114C264.29 27.114 264.752 26.9413 265.106 26.596C265.461 26.26 265.638 25.7467 265.638 25.056V23.852C265.386 24.216 265.036 24.5193 264.588 24.762C264.15 25.0047 263.646 25.126 263.076 25.126C262.423 25.126 261.826 24.958 261.284 24.622C260.743 24.286 260.314 23.8147 259.996 23.208C259.688 22.592 259.534 21.8873 259.534 21.094C259.534 20.31 259.688 19.6147 259.996 19.008C260.314 18.4013 260.738 17.9347 261.27 17.608C261.812 17.2813 262.414 17.118 263.076 17.118ZM265.638 21.122C265.638 20.646 265.545 20.24 265.358 19.904C265.172 19.5587 264.92 19.2973 264.602 19.12C264.285 18.9333 263.944 18.84 263.58 18.84C263.216 18.84 262.88 18.9287 262.572 19.106C262.264 19.2833 262.012 19.5447 261.816 19.89C261.63 20.226 261.536 20.6273 261.536 21.094C261.536 21.5607 261.63 21.9713 261.816 22.326C262.012 22.6713 262.264 22.9373 262.572 23.124C262.89 23.3107 263.226 23.404 263.58 23.404C263.944 23.404 264.285 23.3153 264.602 23.138C264.92 22.9513 265.172 22.69 265.358 22.354C265.545 22.0087 265.638 21.598 265.638 21.122ZM271.487 14.64V25H269.527V14.64H271.487ZM280.633 20.954C280.633 21.234 280.614 21.486 280.577 21.71H274.907C274.954 22.27 275.15 22.7087 275.495 23.026C275.84 23.3433 276.265 23.502 276.769 23.502C277.497 23.502 278.015 23.1893 278.323 22.564H280.437C280.213 23.3107 279.784 23.9267 279.149 24.412C278.514 24.888 277.735 25.126 276.811 25.126C276.064 25.126 275.392 24.9627 274.795 24.636C274.207 24.3 273.745 23.8287 273.409 23.222C273.082 22.6153 272.919 21.9153 272.919 21.122C272.919 20.3193 273.082 19.6147 273.409 19.008C273.736 18.4013 274.193 17.9347 274.781 17.608C275.369 17.2813 276.046 17.118 276.811 17.118C277.548 17.118 278.206 17.2767 278.785 17.594C279.373 17.9113 279.826 18.364 280.143 18.952C280.47 19.5307 280.633 20.198 280.633 20.954ZM278.603 20.394C278.594 19.89 278.412 19.4887 278.057 19.19C277.702 18.882 277.268 18.728 276.755 18.728C276.27 18.728 275.859 18.8773 275.523 19.176C275.196 19.4653 274.996 19.8713 274.921 20.394H278.603Z" fill="#08090A"/>
<defs>
<clipPath id="clip0_1_5000">
<rect width="16" height="16" fill="white" transform="translate(24 12)"/>
</clipPath>
</defs>
</svg>
