<svg width="107" height="24" viewBox="0 0 107 24" fill="none" xmlns="http://www.w3.org/2000/svg">
<path d="M30.646 8.558V11.414H34.006V12.716H30.646V15.698H34.426V17H29.05V7.256H34.426V8.558H30.646ZM39.6958 13.094L42.1878 17H40.3818L38.7158 14.382L37.1478 17H35.4818L37.9738 13.206L35.4818 9.286H37.2878L38.9538 11.904L40.5218 9.286H42.1878L39.6958 13.094ZM44.9741 10.42C45.2448 10.0653 45.6135 9.76667 46.0801 9.524C46.5468 9.28133 47.0741 9.16 47.6621 9.16C48.3341 9.16 48.9455 9.328 49.4961 9.664C50.0561 9.99067 50.4948 10.4527 50.8121 11.05C51.1295 11.6473 51.2881 12.3333 51.2881 13.108C51.2881 13.8827 51.1295 14.578 50.8121 15.194C50.4948 15.8007 50.0561 16.2767 49.4961 16.622C48.9455 16.958 48.3341 17.126 47.6621 17.126C47.0741 17.126 46.5515 17.0093 46.0941 16.776C45.6368 16.5333 45.2635 16.2347 44.9741 15.88V20.668H43.3781V9.286H44.9741V10.42ZM49.6641 13.108C49.6641 12.576 49.5521 12.1187 49.3281 11.736C49.1135 11.344 48.8241 11.05 48.4601 10.854C48.1055 10.6487 47.7228 10.546 47.3121 10.546C46.9108 10.546 46.5281 10.6487 46.1641 10.854C45.8095 11.0593 45.5201 11.358 45.2961 11.75C45.0815 12.142 44.9741 12.604 44.9741 13.136C44.9741 13.668 45.0815 14.1347 45.2961 14.536C45.5201 14.928 45.8095 15.2267 46.1641 15.432C46.5281 15.6373 46.9108 15.74 47.3121 15.74C47.7228 15.74 48.1055 15.6373 48.4601 15.432C48.8241 15.2173 49.1135 14.9093 49.3281 14.508C49.5521 14.1067 49.6641 13.64 49.6641 13.108ZM54.4624 6.64V17H52.8664V6.64H54.4624ZM59.9038 17.126C59.1758 17.126 58.5178 16.9627 57.9298 16.636C57.3418 16.3 56.8798 15.8333 56.5438 15.236C56.2078 14.6293 56.0398 13.9293 56.0398 13.136C56.0398 12.352 56.2125 11.6567 56.5578 11.05C56.9031 10.4433 57.3745 9.97667 57.9718 9.65C58.5691 9.32333 59.2365 9.16 59.9738 9.16C60.7111 9.16 61.3785 9.32333 61.9758 9.65C62.5731 9.97667 63.0445 10.4433 63.3898 11.05C63.7351 11.6567 63.9078 12.352 63.9078 13.136C63.9078 13.92 63.7305 14.6153 63.3758 15.222C63.0211 15.8287 62.5358 16.3 61.9198 16.636C61.3131 16.9627 60.6411 17.126 59.9038 17.126ZM59.9038 15.74C60.3145 15.74 60.6971 15.642 61.0518 15.446C61.4158 15.25 61.7098 14.956 61.9338 14.564C62.1578 14.172 62.2698 13.696 62.2698 13.136C62.2698 12.576 62.1625 12.1047 61.9478 11.722C61.7331 11.33 61.4485 11.036 61.0938 10.84C60.7391 10.644 60.3565 10.546 59.9458 10.546C59.5351 10.546 59.1525 10.644 58.7978 10.84C58.4525 11.036 58.1771 11.33 57.9718 11.722C57.7665 12.1047 57.6638 12.576 57.6638 13.136C57.6638 13.9667 57.8738 14.6107 58.2938 15.068C58.7231 15.516 59.2598 15.74 59.9038 15.74ZM67.0815 10.406C67.3149 10.014 67.6229 9.71067 68.0055 9.496C68.3975 9.272 68.8595 9.16 69.3915 9.16V10.812H68.9855C68.3602 10.812 67.8842 10.9707 67.5575 11.288C67.2402 11.6053 67.0815 12.156 67.0815 12.94V17H65.4855V9.286H67.0815V10.406ZM77.9286 12.954C77.9286 13.2433 77.9099 13.5047 77.8726 13.738H71.9786C72.0253 14.354 72.2539 14.8487 72.6646 15.222C73.0753 15.5953 73.5793 15.782 74.1766 15.782C75.0353 15.782 75.6419 15.4227 75.9966 14.704H77.7186C77.4853 15.4133 77.0606 15.9967 76.4446 16.454C75.8379 16.902 75.0819 17.126 74.1766 17.126C73.4393 17.126 72.7766 16.9627 72.1886 16.636C71.6099 16.3 71.1526 15.8333 70.8166 15.236C70.4899 14.6293 70.3266 13.9293 70.3266 13.136C70.3266 12.3427 70.4853 11.6473 70.8026 11.05C71.1293 10.4433 71.5819 9.97667 72.1606 9.65C72.7486 9.32333 73.4206 9.16 74.1766 9.16C74.9046 9.16 75.5533 9.31867 76.1226 9.636C76.6919 9.95333 77.1353 10.4013 77.4526 10.98C77.7699 11.5493 77.9286 12.2073 77.9286 12.954ZM76.2626 12.45C76.2533 11.862 76.0433 11.3907 75.6326 11.036C75.2219 10.6813 74.7133 10.504 74.1066 10.504C73.5559 10.504 73.0846 10.6813 72.6926 11.036C72.3006 11.3813 72.0673 11.8527 71.9926 12.45H76.2626Z" fill="black"/>
<path d="M12 2.03906C6.49875 2.03906 2.03906 6.49875 2.03906 12C2.03906 17.5013 6.49875 21.9609 12 21.9609C17.5013 21.9609 21.9609 17.5013 21.9609 12C21.9609 6.49875 17.5013 2.03906 12 2.03906ZM16.7405 7.83656L14.0142 13.7991C13.9706 13.8942 13.8942 13.9706 13.7991 14.0142L7.83656 16.7405C7.46953 16.9083 7.09172 16.53 7.25906 16.163L9.98531 10.2005C10.0289 10.1053 10.1053 10.0289 10.2005 9.98531L16.163 7.25906C16.53 7.09172 16.9083 7.47 16.7405 7.83656Z" fill="#8064A2"/>
<path d="M12.7355 11.8532C12.7303 11.8293 12.7242 11.8054 12.7172 11.782C12.7102 11.759 12.7017 11.7356 12.6923 11.7131C12.683 11.6906 12.6727 11.6681 12.6614 11.6465C12.6497 11.6249 12.637 11.6038 12.6234 11.5837C12.6098 11.5631 12.5953 11.5434 12.5798 11.5242C12.5644 11.5054 12.5475 11.4871 12.5302 11.4698C12.5128 11.4524 12.4945 11.4356 12.4758 11.4201C12.4566 11.4046 12.4369 11.3901 12.4163 11.3765C12.3961 11.3629 12.375 11.3502 12.3534 11.3385C12.3319 11.3273 12.3094 11.3165 12.2869 11.3076C12.2644 11.2982 12.2409 11.2898 12.218 11.2827C12.1945 11.2752 12.1706 11.2692 12.1467 11.2645C12.1223 11.2598 12.098 11.256 12.0736 11.2537C12.0248 11.2485 11.9752 11.2485 11.9264 11.2537C11.902 11.256 11.8777 11.2598 11.8533 11.2645C11.8294 11.2692 11.8055 11.2752 11.782 11.2827C11.7591 11.2898 11.7356 11.2982 11.7131 11.3076C11.6906 11.3165 11.6681 11.3273 11.6466 11.3385C11.625 11.3502 11.6039 11.3629 11.5837 11.3765C11.5631 11.3901 11.5434 11.4046 11.5242 11.4201C11.5055 11.4356 11.4867 11.4524 11.4698 11.4698C11.4525 11.4871 11.4356 11.5054 11.4202 11.5242C11.4047 11.5434 11.3897 11.5631 11.3766 11.5837C11.363 11.6038 11.3503 11.6249 11.3386 11.6465C11.3273 11.6681 11.3166 11.6906 11.3077 11.7131C11.2983 11.7356 11.2898 11.759 11.2828 11.782C11.2753 11.8054 11.2692 11.8293 11.2645 11.8532C11.2598 11.8776 11.2561 11.902 11.2538 11.9263C11.2514 11.9507 11.25 11.9756 11.25 11.9999C11.25 12.0243 11.2514 12.0492 11.2538 12.0735C11.2561 12.0979 11.2598 12.1223 11.2645 12.1467C11.2692 12.1706 11.2753 12.1945 11.2828 12.2179C11.2898 12.2409 11.2983 12.2643 11.3077 12.2868C11.3166 12.3093 11.3273 12.3318 11.3386 12.3534C11.3503 12.3749 11.363 12.396 11.3766 12.4162C11.3902 12.4368 11.4047 12.4565 11.4202 12.4757C11.4356 12.4945 11.4525 12.5127 11.4698 12.5301C11.4872 12.5474 11.5055 12.5643 11.5242 12.5798C11.5434 12.5952 11.5631 12.6098 11.5837 12.6234C11.6039 12.637 11.625 12.6496 11.6466 12.6613C11.6681 12.6726 11.6906 12.6829 11.7131 12.6923C11.7356 12.7016 11.7591 12.7101 11.782 12.7171C11.8055 12.7241 11.8294 12.7302 11.8533 12.7354C11.8777 12.7401 11.902 12.7438 11.9264 12.7462C11.9508 12.7485 11.9756 12.7499 12 12.7499C12.0244 12.7499 12.0492 12.7485 12.0736 12.7462C12.098 12.7438 12.1223 12.7401 12.1467 12.7354C12.1706 12.7302 12.1945 12.7241 12.218 12.7171C12.2409 12.7101 12.2644 12.7016 12.2869 12.6923C12.3094 12.6829 12.3319 12.6726 12.353 12.6613C12.375 12.6496 12.3961 12.637 12.4163 12.6234C12.4369 12.6098 12.4566 12.5952 12.4753 12.5798C12.4945 12.5643 12.5128 12.5474 12.5302 12.5301C12.5475 12.5127 12.5644 12.4945 12.5798 12.4757C12.5953 12.4565 12.6098 12.4368 12.6234 12.4162C12.637 12.396 12.6497 12.3749 12.6609 12.3534C12.6727 12.3318 12.683 12.3093 12.6923 12.2868C12.7017 12.2643 12.7102 12.2409 12.7172 12.2179C12.7242 12.1945 12.7303 12.1706 12.7355 12.1467C12.7402 12.1223 12.7439 12.0979 12.7463 12.0735C12.7486 12.0492 12.75 12.0243 12.75 11.9999C12.75 11.9756 12.7486 11.9507 12.7463 11.9263C12.7439 11.902 12.7402 11.8776 12.7355 11.8532Z" fill="#8064A2"/>
<path d="M94.9999 14.071L91.1789 10.25C90.7649 9.83601 90.0929 9.83601 89.6789 10.25C89.2649 10.664 89.2649 11.336 89.6789 11.75L94.2929 16.364C94.6839 16.755 95.3169 16.755 95.7069 16.364L100.321 11.75C100.735 11.336 100.735 10.664 100.321 10.25C99.9069 9.83601 99.2349 9.83601 98.8209 10.25L94.9999 14.071Z" fill="#939CA3"/>
</svg>
