<svg width="114" height="24" viewBox="0 0 114 24" fill="none" xmlns="http://www.w3.org/2000/svg">
<path d="M36.82 8.27V18H35.224V13.744H30.646V18H29.05V8.27H30.646V12.442H35.224V8.27H36.82ZM42.2671 18.126C41.5391 18.126 40.8811 17.9627 40.2931 17.636C39.7051 17.3 39.2431 16.8333 38.9071 16.236C38.5711 15.6293 38.4031 14.9293 38.4031 14.136C38.4031 13.352 38.5758 12.6567 38.9211 12.05C39.2664 11.4433 39.7378 10.9767 40.3351 10.65C40.9324 10.3233 41.5998 10.16 42.3371 10.16C43.0744 10.16 43.7418 10.3233 44.3391 10.65C44.9364 10.9767 45.4078 11.4433 45.7531 12.05C46.0984 12.6567 46.2711 13.352 46.2711 14.136C46.2711 14.92 46.0938 15.6153 45.7391 16.222C45.3844 16.8287 44.8991 17.3 44.2831 17.636C43.6764 17.9627 43.0044 18.126 42.2671 18.126ZM42.2671 16.74C42.6778 16.74 43.0604 16.642 43.4151 16.446C43.7791 16.25 44.0731 15.956 44.2971 15.564C44.5211 15.172 44.6331 14.696 44.6331 14.136C44.6331 13.576 44.5258 13.1047 44.3111 12.722C44.0964 12.33 43.8118 12.036 43.4571 11.84C43.1024 11.644 42.7198 11.546 42.3091 11.546C41.8984 11.546 41.5158 11.644 41.1611 11.84C40.8158 12.036 40.5404 12.33 40.3351 12.722C40.1298 13.1047 40.0271 13.576 40.0271 14.136C40.0271 14.9667 40.2371 15.6107 40.6571 16.068C41.0864 16.516 41.6231 16.74 42.2671 16.74ZM49.4448 11.434C49.7155 11.0607 50.0842 10.7573 50.5508 10.524C51.0268 10.2813 51.5542 10.16 52.1328 10.16C52.8142 10.16 53.4302 10.3233 53.9808 10.65C54.5315 10.9767 54.9655 11.4433 55.2828 12.05C55.6002 12.6473 55.7588 13.3333 55.7588 14.108C55.7588 14.8827 55.6002 15.578 55.2828 16.194C54.9655 16.8007 54.5268 17.2767 53.9668 17.622C53.4162 17.958 52.8048 18.126 52.1328 18.126C51.5355 18.126 51.0035 18.0093 50.5368 17.776C50.0795 17.5427 49.7155 17.244 49.4448 16.88V18H47.8488V7.64H49.4448V11.434ZM54.1348 14.108C54.1348 13.576 54.0228 13.1187 53.7988 12.736C53.5842 12.344 53.2948 12.05 52.9308 11.854C52.5762 11.6487 52.1935 11.546 51.7828 11.546C51.3815 11.546 50.9988 11.6487 50.6348 11.854C50.2802 12.0593 49.9908 12.358 49.7668 12.75C49.5522 13.142 49.4448 13.604 49.4448 14.136C49.4448 14.668 49.5522 15.1347 49.7668 15.536C49.9908 15.928 50.2802 16.2267 50.6348 16.432C50.9988 16.6373 51.3815 16.74 51.7828 16.74C52.1935 16.74 52.5762 16.6373 52.9308 16.432C53.2948 16.2173 53.5842 15.9093 53.7988 15.508C54.0228 15.1067 54.1348 14.64 54.1348 14.108ZM58.9331 11.434C59.2038 11.0607 59.5724 10.7573 60.0391 10.524C60.5151 10.2813 61.0424 10.16 61.6211 10.16C62.3024 10.16 62.9184 10.3233 63.4691 10.65C64.0198 10.9767 64.4538 11.4433 64.7711 12.05C65.0884 12.6473 65.2471 13.3333 65.2471 14.108C65.2471 14.8827 65.0884 15.578 64.7711 16.194C64.4538 16.8007 64.0151 17.2767 63.4551 17.622C62.9044 17.958 62.2931 18.126 61.6211 18.126C61.0238 18.126 60.4918 18.0093 60.0251 17.776C59.5678 17.5427 59.2038 17.244 58.9331 16.88V18H57.3371V7.64H58.9331V11.434ZM63.6231 14.108C63.6231 13.576 63.5111 13.1187 63.2871 12.736C63.0724 12.344 62.7831 12.05 62.4191 11.854C62.0644 11.6487 61.6818 11.546 61.2711 11.546C60.8698 11.546 60.4871 11.6487 60.1231 11.854C59.7684 12.0593 59.4791 12.358 59.2551 12.75C59.0404 13.142 58.9331 13.604 58.9331 14.136C58.9331 14.668 59.0404 15.1347 59.2551 15.536C59.4791 15.928 59.7684 16.2267 60.1231 16.432C60.4871 16.6373 60.8698 16.74 61.2711 16.74C61.6818 16.74 62.0644 16.6373 62.4191 16.432C62.7831 16.2173 63.0724 15.9093 63.2871 15.508C63.5111 15.1067 63.6231 14.64 63.6231 14.108ZM67.6374 9.264C67.3481 9.264 67.1054 9.166 66.9094 8.97C66.7134 8.774 66.6154 8.53133 66.6154 8.242C66.6154 7.95267 66.7134 7.71 66.9094 7.514C67.1054 7.318 67.3481 7.22 67.6374 7.22C67.9174 7.22 68.1554 7.318 68.3514 7.514C68.5474 7.71 68.6454 7.95267 68.6454 8.242C68.6454 8.53133 68.5474 8.774 68.3514 8.97C68.1554 9.166 67.9174 9.264 67.6374 9.264ZM68.4214 10.286V18H66.8254V10.286H68.4214ZM77.5868 13.954C77.5868 14.2433 77.5681 14.5047 77.5308 14.738H71.6368C71.6835 15.354 71.9121 15.8487 72.3228 16.222C72.7335 16.5953 73.2375 16.782 73.8348 16.782C74.6935 16.782 75.3001 16.4227 75.6548 15.704H77.3768C77.1435 16.4133 76.7188 16.9967 76.1028 17.454C75.4961 17.902 74.7401 18.126 73.8348 18.126C73.0975 18.126 72.4348 17.9627 71.8468 17.636C71.2681 17.3 70.8108 16.8333 70.4748 16.236C70.1481 15.6293 69.9848 14.9293 69.9848 14.136C69.9848 13.3427 70.1435 12.6473 70.4608 12.05C70.7875 11.4433 71.2401 10.9767 71.8188 10.65C72.4068 10.3233 73.0788 10.16 73.8348 10.16C74.5628 10.16 75.2115 10.3187 75.7808 10.636C76.3501 10.9533 76.7935 11.4013 77.1108 11.98C77.4281 12.5493 77.5868 13.2073 77.5868 13.954ZM75.9208 13.45C75.9115 12.862 75.7015 12.3907 75.2908 12.036C74.8801 11.6813 74.3715 11.504 73.7648 11.504C73.2141 11.504 72.7428 11.6813 72.3508 12.036C71.9588 12.3813 71.7255 12.8527 71.6508 13.45H75.9208ZM81.9574 18.126C81.3508 18.126 80.8048 18.0187 80.3194 17.804C79.8434 17.58 79.4654 17.2813 79.1854 16.908C78.9054 16.5253 78.7561 16.1007 78.7374 15.634H80.3894C80.4174 15.9607 80.5714 16.236 80.8514 16.46C81.1408 16.6747 81.5001 16.782 81.9294 16.782C82.3774 16.782 82.7228 16.698 82.9654 16.53C83.2174 16.3527 83.3434 16.1287 83.3434 15.858C83.3434 15.5687 83.2034 15.354 82.9234 15.214C82.6528 15.074 82.2188 14.92 81.6214 14.752C81.0428 14.5933 80.5714 14.4393 80.2074 14.29C79.8434 14.1407 79.5261 13.912 79.2554 13.604C78.9941 13.296 78.8634 12.89 78.8634 12.386C78.8634 11.9753 78.9848 11.602 79.2274 11.266C79.4701 10.9207 79.8154 10.65 80.2634 10.454C80.7208 10.258 81.2434 10.16 81.8314 10.16C82.7088 10.16 83.4134 10.384 83.9454 10.832C84.4868 11.2707 84.7761 11.8727 84.8134 12.638H83.2174C83.1894 12.2927 83.0494 12.0173 82.7974 11.812C82.5454 11.6067 82.2048 11.504 81.7754 11.504C81.3554 11.504 81.0334 11.5833 80.8094 11.742C80.5854 11.9007 80.4734 12.1107 80.4734 12.372C80.4734 12.5773 80.5481 12.75 80.6974 12.89C80.8468 13.03 81.0288 13.142 81.2434 13.226C81.4581 13.3007 81.7754 13.3987 82.1954 13.52C82.7554 13.6693 83.2128 13.8233 83.5674 13.982C83.9314 14.1313 84.2441 14.3553 84.5054 14.654C84.7668 14.9527 84.9021 15.3493 84.9114 15.844C84.9114 16.2827 84.7901 16.6747 84.5474 17.02C84.3048 17.3653 83.9594 17.636 83.5114 17.832C83.0728 18.028 82.5548 18.126 81.9574 18.126Z" fill="black"/>
<path d="M12.5 3L20.7272 7.75V17.25L12.5 22L4.27276 17.25V7.75L12.5 3Z" fill="#8064A2"/>
<path d="M102 14.071L98.1789 10.25C97.7649 9.83601 97.0929 9.83601 96.6789 10.25C96.2649 10.664 96.2649 11.336 96.6789 11.75L101.293 16.364C101.684 16.755 102.317 16.755 102.707 16.364L107.321 11.75C107.735 11.336 107.735 10.664 107.321 10.25C106.907 9.83601 106.235 9.83601 105.821 10.25L102 14.071Z" fill="#939CA3"/>
<path d="M12 2.5L20.2272 7.25V16.75L12 21.5L3.77276 16.75V7.25L12 2.5Z" fill="#8064A2"/>
<path d="M11.6206 7.13723C11.7422 6.77269 12.2578 6.77269 12.3794 7.13723L13.2814 9.84062C13.3355 10.0028 13.4867 10.1127 13.6577 10.114L16.5075 10.1365C16.8918 10.1395 17.0511 10.6299 16.742 10.8582L14.4497 12.5514C14.3122 12.653 14.2544 12.8308 14.3059 12.9938L15.1652 15.711C15.2811 16.0774 14.864 16.3805 14.5513 16.1571L12.2326 14.5002C12.0935 14.4008 11.9065 14.4008 11.7674 14.5002L9.44871 16.1571C9.13604 16.3805 8.71889 16.0774 8.83476 15.711L9.69405 12.9938C9.7456 12.8308 9.68785 12.653 9.55032 12.5514L7.25798 10.8582C6.94887 10.6299 7.1082 10.1395 7.49248 10.1365L10.3423 10.114C10.5133 10.1127 10.6645 10.0028 10.7186 9.84062L11.6206 7.13723Z" fill="white"/>
</svg>
