<svg width="147" height="40" viewBox="0 0 147 40" fill="none" xmlns="http://www.w3.org/2000/svg">
<g clip-path="url(#clip0_1_4241)">
<path d="M20 21.25C22.7167 21.25 25.1167 21.9 27.0667 22.75C28.8667 23.55 30 25.35 30 27.3V30H10V27.3167C10 25.35 11.1333 23.55 12.9333 22.7667C14.8833 21.9 17.2833 21.25 20 21.25ZM6.66667 21.6667C8.5 21.6667 10 20.1667 10 18.3333C10 16.5 8.5 15 6.66667 15C4.83333 15 3.33333 16.5 3.33333 18.3333C3.33333 20.1667 4.83333 21.6667 6.66667 21.6667ZM8.55 23.5C7.93333 23.4 7.31667 23.3333 6.66667 23.3333C5.01667 23.3333 3.45 23.6833 2.03333 24.3C0.8 24.8333 0 26.0333 0 27.3833V30H7.5V27.3167C7.5 25.9333 7.88333 24.6333 8.55 23.5ZM33.3333 21.6667C35.1667 21.6667 36.6667 20.1667 36.6667 18.3333C36.6667 16.5 35.1667 15 33.3333 15C31.5 15 30 16.5 30 18.3333C30 20.1667 31.5 21.6667 33.3333 21.6667ZM40 27.3833C40 26.0333 39.2 24.8333 37.9667 24.3C36.55 23.6833 34.9833 23.3333 33.3333 23.3333C32.6833 23.3333 32.0667 23.4 31.45 23.5C32.1167 24.6333 32.5 25.9333 32.5 27.3167V30H40V27.3833ZM20 10C22.7667 10 25 12.2333 25 15C25 17.7667 22.7667 20 20 20C17.2333 20 15 17.7667 15 15C15 12.2333 17.2333 10 20 10Z" fill="#8064A2"/>
</g>
<path d="M77.872 16.432C77.872 17.328 77.656 18.168 77.224 18.952C76.808 19.736 76.144 20.368 75.232 20.848C74.336 21.328 73.2 21.568 71.824 21.568H69.016V28H65.656V11.248H71.824C73.12 11.248 74.224 11.472 75.136 11.92C76.048 12.368 76.728 12.984 77.176 13.768C77.64 14.552 77.872 15.44 77.872 16.432ZM71.68 18.856C72.608 18.856 73.296 18.648 73.744 18.232C74.192 17.8 74.416 17.2 74.416 16.432C74.416 14.8 73.504 13.984 71.68 13.984H69.016V18.856H71.68ZM92.6176 21.064C92.6176 21.544 92.5856 21.976 92.5216 22.36H82.8016C82.8816 23.32 83.2176 24.072 83.8096 24.616C84.4016 25.16 85.1296 25.432 85.9936 25.432C87.2416 25.432 88.1296 24.896 88.6576 23.824H92.2816C91.8976 25.104 91.1616 26.16 90.0736 26.992C88.9856 27.808 87.6496 28.216 86.0656 28.216C84.7856 28.216 83.6336 27.936 82.6096 27.376C81.6016 26.8 80.8096 25.992 80.2336 24.952C79.6736 23.912 79.3936 22.712 79.3936 21.352C79.3936 19.976 79.6736 18.768 80.2336 17.728C80.7936 16.688 81.5776 15.888 82.5856 15.328C83.5936 14.768 84.7536 14.488 86.0656 14.488C87.3296 14.488 88.4576 14.76 89.4496 15.304C90.4576 15.848 91.2336 16.624 91.7776 17.632C92.3376 18.624 92.6176 19.768 92.6176 21.064ZM89.1376 20.104C89.1216 19.24 88.8096 18.552 88.2016 18.04C87.5936 17.512 86.8496 17.248 85.9696 17.248C85.1376 17.248 84.4336 17.504 83.8576 18.016C83.2976 18.512 82.9536 19.208 82.8256 20.104H89.1376ZM100.974 28.216C99.6941 28.216 98.5421 27.936 97.5181 27.376C96.4941 26.8 95.6861 25.992 95.0941 24.952C94.5181 23.912 94.2301 22.712 94.2301 21.352C94.2301 19.992 94.5261 18.792 95.1181 17.752C95.7261 16.712 96.5501 15.912 97.5901 15.352C98.6301 14.776 99.7901 14.488 101.07 14.488C102.35 14.488 103.51 14.776 104.55 15.352C105.59 15.912 106.406 16.712 106.998 17.752C107.606 18.792 107.91 19.992 107.91 21.352C107.91 22.712 107.598 23.912 106.974 24.952C106.366 25.992 105.534 26.8 104.478 27.376C103.438 27.936 102.27 28.216 100.974 28.216ZM100.974 25.288C101.582 25.288 102.15 25.144 102.678 24.856C103.222 24.552 103.654 24.104 103.974 23.512C104.294 22.92 104.454 22.2 104.454 21.352C104.454 20.088 104.118 19.12 103.446 18.448C102.79 17.76 101.982 17.416 101.022 17.416C100.062 17.416 99.2541 17.76 98.5981 18.448C97.9581 19.12 97.6381 20.088 97.6381 21.352C97.6381 22.616 97.9501 23.592 98.5741 24.28C99.2141 24.952 100.014 25.288 100.974 25.288ZM113.735 16.624C114.167 16.016 114.759 15.512 115.511 15.112C116.279 14.696 117.151 14.488 118.127 14.488C119.263 14.488 120.287 14.768 121.199 15.328C122.127 15.888 122.855 16.688 123.383 17.728C123.927 18.752 124.199 19.944 124.199 21.304C124.199 22.664 123.927 23.872 123.383 24.928C122.855 25.968 122.127 26.776 121.199 27.352C120.287 27.928 119.263 28.216 118.127 28.216C117.151 28.216 116.287 28.016 115.535 27.616C114.799 27.216 114.199 26.712 113.735 26.104V34.336H110.375V14.704H113.735V16.624ZM120.767 21.304C120.767 20.504 120.599 19.816 120.263 19.24C119.943 18.648 119.511 18.2 118.967 17.896C118.439 17.592 117.863 17.44 117.239 17.44C116.631 17.44 116.055 17.6 115.511 17.92C114.983 18.224 114.551 18.672 114.215 19.264C113.895 19.856 113.735 20.552 113.735 21.352C113.735 22.152 113.895 22.848 114.215 23.44C114.551 24.032 114.983 24.488 115.511 24.808C116.055 25.112 116.631 25.264 117.239 25.264C117.863 25.264 118.439 25.104 118.967 24.784C119.511 24.464 119.943 24.008 120.263 23.416C120.599 22.824 120.767 22.12 120.767 21.304ZM130 10.24V28H126.64V10.24H130ZM145.68 21.064C145.68 21.544 145.648 21.976 145.584 22.36H135.864C135.944 23.32 136.28 24.072 136.872 24.616C137.464 25.16 138.192 25.432 139.056 25.432C140.304 25.432 141.192 24.896 141.72 23.824H145.344C144.96 25.104 144.224 26.16 143.136 26.992C142.048 27.808 140.712 28.216 139.128 28.216C137.848 28.216 136.696 27.936 135.672 27.376C134.664 26.8 133.872 25.992 133.296 24.952C132.736 23.912 132.456 22.712 132.456 21.352C132.456 19.976 132.736 18.768 133.296 17.728C133.856 16.688 134.64 15.888 135.648 15.328C136.656 14.768 137.816 14.488 139.128 14.488C140.392 14.488 141.52 14.76 142.512 15.304C143.52 15.848 144.296 16.624 144.84 17.632C145.4 18.624 145.68 19.768 145.68 21.064ZM142.2 20.104C142.184 19.24 141.872 18.552 141.264 18.04C140.656 17.512 139.912 17.248 139.032 17.248C138.2 17.248 137.496 17.504 136.92 18.016C136.36 18.512 136.016 19.208 135.888 20.104H142.2Z" fill="black"/>
<defs>
<clipPath id="clip0_1_4241">
<rect width="40" height="40" fill="white"/>
</clipPath>
</defs>
</svg>
