<svg width="131" height="40" viewBox="0 0 131 40" fill="none" xmlns="http://www.w3.org/2000/svg">
<g clip-path="url(#clip0_1_4262)">
<path d="M20.0002 3.33333C13.5502 3.33333 8.3335 8.55 8.3335 15C8.3335 23.75 20.0002 36.6667 20.0002 36.6667C20.0002 36.6667 31.6668 23.75 31.6668 15C31.6668 8.55 26.4502 3.33333 20.0002 3.33333ZM20.0002 19.1667C17.7002 19.1667 15.8335 17.3 15.8335 15C15.8335 12.7 17.7002 10.8333 20.0002 10.8333C22.3002 10.8333 24.1668 12.7 24.1668 15C24.1668 17.3 22.3002 19.1667 20.0002 19.1667Z" fill="#77933C"/>
</g>
<path d="M77.872 16.432C77.872 17.328 77.656 18.168 77.224 18.952C76.808 19.736 76.144 20.368 75.232 20.848C74.336 21.328 73.2 21.568 71.824 21.568H69.016V28H65.656V11.248H71.824C73.12 11.248 74.224 11.472 75.136 11.92C76.048 12.368 76.728 12.984 77.176 13.768C77.64 14.552 77.872 15.44 77.872 16.432ZM71.68 18.856C72.608 18.856 73.296 18.648 73.744 18.232C74.192 17.8 74.416 17.2 74.416 16.432C74.416 14.8 73.504 13.984 71.68 13.984H69.016V18.856H71.68ZM83.6176 10.24V28H80.2576V10.24H83.6176ZM86.0732 21.304C86.0732 19.96 86.3372 18.768 86.8652 17.728C87.4093 16.688 88.1373 15.888 89.0493 15.328C89.9773 14.768 91.0093 14.488 92.1453 14.488C93.1373 14.488 94.0013 14.688 94.7373 15.088C95.4893 15.488 96.0893 15.992 96.5373 16.6V14.704H99.9213V28H96.5373V26.056C96.1053 26.68 95.5053 27.2 94.7373 27.616C93.9853 28.016 93.1133 28.216 92.1213 28.216C91.0013 28.216 89.9773 27.928 89.0493 27.352C88.1373 26.776 87.4093 25.968 86.8652 24.928C86.3372 23.872 86.0732 22.664 86.0732 21.304ZM96.5373 21.352C96.5373 20.536 96.3773 19.84 96.0573 19.264C95.7373 18.672 95.3053 18.224 94.7613 17.92C94.2173 17.6 93.6333 17.44 93.0093 17.44C92.3853 17.44 91.8093 17.592 91.2812 17.896C90.7533 18.2 90.3213 18.648 89.9853 19.24C89.6653 19.816 89.5053 20.504 89.5053 21.304C89.5053 22.104 89.6653 22.808 89.9853 23.416C90.3213 24.008 90.7533 24.464 91.2812 24.784C91.8253 25.104 92.4013 25.264 93.0093 25.264C93.6333 25.264 94.2173 25.112 94.7613 24.808C95.3053 24.488 95.7373 24.04 96.0573 23.464C96.3773 22.872 96.5373 22.168 96.5373 21.352ZM102.339 21.352C102.339 19.976 102.619 18.776 103.179 17.752C103.739 16.712 104.515 15.912 105.507 15.352C106.499 14.776 107.635 14.488 108.915 14.488C110.563 14.488 111.923 14.904 112.995 15.736C114.083 16.552 114.811 17.704 115.179 19.192H111.555C111.363 18.616 111.035 18.168 110.571 17.848C110.123 17.512 109.563 17.344 108.891 17.344C107.931 17.344 107.171 17.696 106.611 18.4C106.051 19.088 105.771 20.072 105.771 21.352C105.771 22.616 106.051 23.6 106.611 24.304C107.171 24.992 107.931 25.336 108.891 25.336C110.251 25.336 111.139 24.728 111.555 23.512H115.179C114.811 24.952 114.083 26.096 112.995 26.944C111.907 27.792 110.547 28.216 108.915 28.216C107.635 28.216 106.499 27.936 105.507 27.376C104.515 26.8 103.739 26 103.179 24.976C102.619 23.936 102.339 22.728 102.339 21.352ZM130 21.064C130 21.544 129.968 21.976 129.904 22.36H120.184C120.264 23.32 120.6 24.072 121.192 24.616C121.784 25.16 122.512 25.432 123.376 25.432C124.624 25.432 125.512 24.896 126.04 23.824H129.664C129.28 25.104 128.544 26.16 127.456 26.992C126.368 27.808 125.032 28.216 123.448 28.216C122.168 28.216 121.016 27.936 119.992 27.376C118.984 26.8 118.192 25.992 117.616 24.952C117.056 23.912 116.776 22.712 116.776 21.352C116.776 19.976 117.056 18.768 117.616 17.728C118.176 16.688 118.96 15.888 119.968 15.328C120.976 14.768 122.136 14.488 123.448 14.488C124.712 14.488 125.84 14.76 126.832 15.304C127.84 15.848 128.616 16.624 129.16 17.632C129.72 18.624 130 19.768 130 21.064ZM126.52 20.104C126.504 19.24 126.192 18.552 125.584 18.04C124.976 17.512 124.232 17.248 123.352 17.248C122.52 17.248 121.816 17.504 121.24 18.016C120.68 18.512 120.336 19.208 120.208 20.104H126.52Z" fill="black"/>
<defs>
<clipPath id="clip0_1_4262">
<rect width="40" height="40" fill="white"/>
</clipPath>
</defs>
</svg>
