<svg width="160" height="40" viewBox="0 0 160 40" fill="none" xmlns="http://www.w3.org/2000/svg">
<g clip-path="url(#clip0_1_4252)">
<path d="M28.6832 14.9997L21.3832 4.06636C21.0665 3.5997 20.5332 3.36636 19.9998 3.36636C19.4665 3.36636 18.9332 3.5997 18.6165 4.08303L11.3165 14.9997H3.33317C2.4165 14.9997 1.6665 15.7497 1.6665 16.6664C1.6665 16.8164 1.68317 16.9664 1.73317 17.1164L5.9665 32.5664C6.34984 33.9664 7.63317 34.9997 9.1665 34.9997H30.8332C32.3665 34.9997 33.6498 33.9664 34.0498 32.5664L38.2832 17.1164L38.3332 16.6664C38.3332 15.7497 37.5832 14.9997 36.6665 14.9997H28.6832ZM14.9998 14.9997L19.9998 7.66636L24.9998 14.9997H14.9998ZM19.9998 28.333C18.1665 28.333 16.6665 26.833 16.6665 24.9997C16.6665 23.1664 18.1665 21.6664 19.9998 21.6664C21.8332 21.6664 23.3332 23.1664 23.3332 24.9997C23.3332 26.833 21.8332 28.333 19.9998 28.333Z" fill="#C0504D"/>
</g>
<path d="M77.872 16.432C77.872 17.328 77.656 18.168 77.224 18.952C76.808 19.736 76.144 20.368 75.232 20.848C74.336 21.328 73.2 21.568 71.824 21.568H69.016V28H65.656V11.248H71.824C73.12 11.248 74.224 11.472 75.136 11.92C76.048 12.368 76.728 12.984 77.176 13.768C77.64 14.552 77.872 15.44 77.872 16.432ZM71.68 18.856C72.608 18.856 73.296 18.648 73.744 18.232C74.192 17.8 74.416 17.2 74.416 16.432C74.416 14.8 73.504 13.984 71.68 13.984H69.016V18.856H71.68ZM83.6176 16.768C84.0496 16.064 84.6096 15.512 85.2976 15.112C86.0016 14.712 86.8016 14.512 87.6976 14.512V18.04H86.8096C85.7536 18.04 84.9536 18.288 84.4096 18.784C83.8816 19.28 83.6176 20.144 83.6176 21.376V28H80.2576V14.704H83.6176V16.768ZM95.8647 28.216C94.5847 28.216 93.4327 27.936 92.4087 27.376C91.3847 26.8 90.5767 25.992 89.9847 24.952C89.4087 23.912 89.1207 22.712 89.1207 21.352C89.1207 19.992 89.4167 18.792 90.0087 17.752C90.6167 16.712 91.4407 15.912 92.4807 15.352C93.5207 14.776 94.6807 14.488 95.9607 14.488C97.2407 14.488 98.4007 14.776 99.4407 15.352C100.481 15.912 101.297 16.712 101.889 17.752C102.497 18.792 102.801 19.992 102.801 21.352C102.801 22.712 102.489 23.912 101.865 24.952C101.257 25.992 100.425 26.8 99.3687 27.376C98.3287 27.936 97.1607 28.216 95.8647 28.216ZM95.8647 25.288C96.4727 25.288 97.0407 25.144 97.5687 24.856C98.1127 24.552 98.5447 24.104 98.8647 23.512C99.1847 22.92 99.3447 22.2 99.3447 21.352C99.3447 20.088 99.0087 19.12 98.3367 18.448C97.6807 17.76 96.8727 17.416 95.9127 17.416C94.9527 17.416 94.1447 17.76 93.4887 18.448C92.8487 19.12 92.5287 20.088 92.5287 21.352C92.5287 22.616 92.8407 23.592 93.4647 24.28C94.1047 24.952 94.9047 25.288 95.8647 25.288ZM104.401 21.304C104.401 19.96 104.665 18.768 105.193 17.728C105.737 16.688 106.473 15.888 107.401 15.328C108.329 14.768 109.361 14.488 110.497 14.488C111.361 14.488 112.185 14.68 112.969 15.064C113.753 15.432 114.377 15.928 114.841 16.552V10.24H118.249V28H114.841V26.032C114.425 26.688 113.841 27.216 113.089 27.616C112.337 28.016 111.465 28.216 110.473 28.216C109.353 28.216 108.329 27.928 107.401 27.352C106.473 26.776 105.737 25.968 105.193 24.928C104.665 23.872 104.401 22.664 104.401 21.304ZM114.865 21.352C114.865 20.536 114.705 19.84 114.385 19.264C114.065 18.672 113.633 18.224 113.089 17.92C112.545 17.6 111.961 17.44 111.337 17.44C110.713 17.44 110.137 17.592 109.609 17.896C109.081 18.2 108.649 18.648 108.313 19.24C107.993 19.816 107.833 20.504 107.833 21.304C107.833 22.104 107.993 22.808 108.313 23.416C108.649 24.008 109.081 24.464 109.609 24.784C110.153 25.104 110.729 25.264 111.337 25.264C111.961 25.264 112.545 25.112 113.089 24.808C113.633 24.488 114.065 24.04 114.385 23.464C114.705 22.872 114.865 22.168 114.865 21.352ZM134.083 14.704V28H130.699V26.32C130.267 26.896 129.699 27.352 128.995 27.688C128.307 28.008 127.555 28.168 126.739 28.168C125.699 28.168 124.779 27.952 123.979 27.52C123.179 27.072 122.547 26.424 122.083 25.576C121.635 24.712 121.411 23.688 121.411 22.504V14.704H124.771V22.024C124.771 23.08 125.035 23.896 125.563 24.472C126.091 25.032 126.811 25.312 127.723 25.312C128.651 25.312 129.379 25.032 129.907 24.472C130.435 23.896 130.699 23.08 130.699 22.024V14.704H134.083ZM136.534 21.352C136.534 19.976 136.814 18.776 137.374 17.752C137.934 16.712 138.71 15.912 139.702 15.352C140.694 14.776 141.83 14.488 143.11 14.488C144.758 14.488 146.118 14.904 147.19 15.736C148.278 16.552 149.006 17.704 149.374 19.192H145.75C145.558 18.616 145.23 18.168 144.766 17.848C144.318 17.512 143.758 17.344 143.086 17.344C142.126 17.344 141.366 17.696 140.806 18.4C140.246 19.088 139.966 20.072 139.966 21.352C139.966 22.616 140.246 23.6 140.806 24.304C141.366 24.992 142.126 25.336 143.086 25.336C144.446 25.336 145.334 24.728 145.75 23.512H149.374C149.006 24.952 148.278 26.096 147.19 26.944C146.102 27.792 144.742 28.216 143.11 28.216C141.83 28.216 140.694 27.936 139.702 27.376C138.71 26.8 137.934 26 137.374 24.976C136.814 23.936 136.534 22.728 136.534 21.352ZM155.748 17.464V23.896C155.748 24.344 155.852 24.672 156.06 24.88C156.284 25.072 156.652 25.168 157.164 25.168H158.724V28H156.612C153.78 28 152.364 26.624 152.364 23.872V17.464H150.78V14.704H152.364V11.416H155.748V14.704H158.724V17.464H155.748Z" fill="black"/>
<defs>
<clipPath id="clip0_1_4252">
<rect width="40" height="40" fill="white"/>
</clipPath>
</defs>
</svg>
