<svg width="171" height="40" viewBox="0 0 171 40" fill="none" xmlns="http://www.w3.org/2000/svg">
<g clip-path="url(#clip0_1_4272)">
<rect x="8" y="13" width="24" height="19" fill="#0096C8"/>
<path d="M26.6667 17.5498C26.1833 17.0665 25.3833 17.0665 24.9 17.5498L17.65 24.7998L15 22.1498C14.5167 21.6665 13.7167 21.6665 13.2333 22.1498C12.75 22.6332 12.75 23.4332 13.2333 23.9165L16.4667 27.1498C17.1167 27.7998 18.1667 27.7998 18.8167 27.1498L26.65 19.3165C27.15 18.8332 27.15 18.0332 26.6667 17.5498ZM31.6667 4.99984H30V3.33317C30 2.4165 29.25 1.6665 28.3333 1.6665C27.4167 1.6665 26.6667 2.4165 26.6667 3.33317V4.99984H13.3333V3.33317C13.3333 2.4165 12.5833 1.6665 11.6667 1.6665C10.75 1.6665 10 2.4165 10 3.33317V4.99984H8.33333C6.48333 4.99984 5.01667 6.49984 5.01667 8.33317L5 31.6665C5 33.4998 6.48333 34.9998 8.33333 34.9998H31.6667C33.5 34.9998 35 33.4998 35 31.6665V8.33317C35 6.49984 33.5 4.99984 31.6667 4.99984ZM30 31.6665H10C9.08333 31.6665 8.33333 30.9165 8.33333 29.9998V13.3332H31.6667V29.9998C31.6667 30.9165 30.9167 31.6665 30 31.6665Z" fill="#0096C8"/>
<path d="M26.7958 17.3625C26.3125 16.8792 25.5125 16.8792 25.0292 17.3625L17.7792 24.6125L15.1292 21.9625C14.6458 21.4792 13.8458 21.4792 13.3625 21.9625C12.8792 22.4458 12.8792 23.2458 13.3625 23.7292L16.5958 26.9625C17.2458 27.6125 18.2958 27.6125 18.9458 26.9625L26.7792 19.1292C27.2792 18.6458 27.2792 17.8458 26.7958 17.3625Z" fill="white"/>
</g>
<path d="M77.872 16.432C77.872 17.328 77.656 18.168 77.224 18.952C76.808 19.736 76.144 20.368 75.232 20.848C74.336 21.328 73.2 21.568 71.824 21.568H69.016V28H65.656V11.248H71.824C73.12 11.248 74.224 11.472 75.136 11.92C76.048 12.368 76.728 12.984 77.176 13.768C77.64 14.552 77.872 15.44 77.872 16.432ZM71.68 18.856C72.608 18.856 73.296 18.648 73.744 18.232C74.192 17.8 74.416 17.2 74.416 16.432C74.416 14.8 73.504 13.984 71.68 13.984H69.016V18.856H71.68ZM83.6176 16.768C84.0496 16.064 84.6096 15.512 85.2976 15.112C86.0016 14.712 86.8016 14.512 87.6976 14.512V18.04H86.8096C85.7536 18.04 84.9536 18.288 84.4096 18.784C83.8816 19.28 83.6176 20.144 83.6176 21.376V28H80.2576V14.704H83.6176V16.768ZM95.8647 28.216C94.5847 28.216 93.4327 27.936 92.4087 27.376C91.3847 26.8 90.5767 25.992 89.9847 24.952C89.4087 23.912 89.1207 22.712 89.1207 21.352C89.1207 19.992 89.4167 18.792 90.0087 17.752C90.6167 16.712 91.4407 15.912 92.4807 15.352C93.5207 14.776 94.6807 14.488 95.9607 14.488C97.2407 14.488 98.4007 14.776 99.4407 15.352C100.481 15.912 101.297 16.712 101.889 17.752C102.497 18.792 102.801 19.992 102.801 21.352C102.801 22.712 102.489 23.912 101.865 24.952C101.257 25.992 100.425 26.8 99.3687 27.376C98.3287 27.936 97.1607 28.216 95.8647 28.216ZM95.8647 25.288C96.4727 25.288 97.0407 25.144 97.5687 24.856C98.1127 24.552 98.5447 24.104 98.8647 23.512C99.1847 22.92 99.3447 22.2 99.3447 21.352C99.3447 20.088 99.0087 19.12 98.3367 18.448C97.6807 17.76 96.8727 17.416 95.9127 17.416C94.9527 17.416 94.1447 17.76 93.4887 18.448C92.8487 19.12 92.5287 20.088 92.5287 21.352C92.5287 22.616 92.8407 23.592 93.4647 24.28C94.1047 24.952 94.9047 25.288 95.8647 25.288ZM110.473 14.488C111.465 14.488 112.337 14.688 113.089 15.088C113.841 15.472 114.433 15.976 114.865 16.6V14.704H118.249V28.096C118.249 29.328 118.001 30.424 117.505 31.384C117.009 32.36 116.265 33.128 115.273 33.688C114.281 34.264 113.081 34.552 111.673 34.552C109.785 34.552 108.233 34.112 107.017 33.232C105.817 32.352 105.137 31.152 104.977 29.632H108.313C108.489 30.24 108.865 30.72 109.441 31.072C110.033 31.44 110.745 31.624 111.577 31.624C112.553 31.624 113.345 31.328 113.953 30.736C114.561 30.16 114.865 29.28 114.865 28.096V26.032C114.433 26.656 113.833 27.176 113.065 27.592C112.313 28.008 111.449 28.216 110.473 28.216C109.353 28.216 108.329 27.928 107.401 27.352C106.473 26.776 105.737 25.968 105.193 24.928C104.665 23.872 104.401 22.664 104.401 21.304C104.401 19.96 104.665 18.768 105.193 17.728C105.737 16.688 106.465 15.888 107.377 15.328C108.305 14.768 109.337 14.488 110.473 14.488ZM114.865 21.352C114.865 20.536 114.705 19.84 114.385 19.264C114.065 18.672 113.633 18.224 113.089 17.92C112.545 17.6 111.961 17.44 111.337 17.44C110.713 17.44 110.137 17.592 109.609 17.896C109.081 18.2 108.649 18.648 108.313 19.24C107.993 19.816 107.833 20.504 107.833 21.304C107.833 22.104 107.993 22.808 108.313 23.416C108.649 24.008 109.081 24.464 109.609 24.784C110.153 25.104 110.729 25.264 111.337 25.264C111.961 25.264 112.545 25.112 113.089 24.808C113.633 24.488 114.065 24.04 114.385 23.464C114.705 22.872 114.865 22.168 114.865 21.352ZM124.891 16.768C125.323 16.064 125.883 15.512 126.571 15.112C127.275 14.712 128.075 14.512 128.971 14.512V18.04H128.083C127.027 18.04 126.227 18.288 125.683 18.784C125.155 19.28 124.891 20.144 124.891 21.376V28H121.531V14.704H124.891V16.768ZM130.37 21.304C130.37 19.96 130.634 18.768 131.162 17.728C131.706 16.688 132.434 15.888 133.346 15.328C134.274 14.768 135.306 14.488 136.442 14.488C137.434 14.488 138.298 14.688 139.034 15.088C139.786 15.488 140.386 15.992 140.834 16.6V14.704H144.218V28H140.834V26.056C140.402 26.68 139.802 27.2 139.034 27.616C138.282 28.016 137.41 28.216 136.418 28.216C135.298 28.216 134.274 27.928 133.346 27.352C132.434 26.776 131.706 25.968 131.162 24.928C130.634 23.872 130.37 22.664 130.37 21.304ZM140.834 21.352C140.834 20.536 140.674 19.84 140.354 19.264C140.034 18.672 139.602 18.224 139.058 17.92C138.514 17.6 137.93 17.44 137.306 17.44C136.682 17.44 136.106 17.592 135.578 17.896C135.05 18.2 134.618 18.648 134.282 19.24C133.962 19.816 133.802 20.504 133.802 21.304C133.802 22.104 133.962 22.808 134.282 23.416C134.618 24.008 135.05 24.464 135.578 24.784C136.122 25.104 136.698 25.264 137.306 25.264C137.93 25.264 138.514 25.112 139.058 24.808C139.602 24.488 140.034 24.04 140.354 23.464C140.674 22.872 140.834 22.168 140.834 21.352ZM164.012 14.512C165.644 14.512 166.956 15.016 167.948 16.024C168.956 17.016 169.46 18.408 169.46 20.2V28H166.1V20.656C166.1 19.616 165.836 18.824 165.308 18.28C164.78 17.72 164.06 17.44 163.148 17.44C162.236 17.44 161.508 17.72 160.964 18.28C160.436 18.824 160.172 19.616 160.172 20.656V28H156.812V20.656C156.812 19.616 156.548 18.824 156.02 18.28C155.492 17.72 154.772 17.44 153.86 17.44C152.932 17.44 152.196 17.72 151.652 18.28C151.124 18.824 150.86 19.616 150.86 20.656V28H147.5V14.704H150.86V16.312C151.292 15.752 151.844 15.312 152.516 14.992C153.204 14.672 153.956 14.512 154.772 14.512C155.812 14.512 156.74 14.736 157.556 15.184C158.372 15.616 159.004 16.24 159.452 17.056C159.884 16.288 160.508 15.672 161.324 15.208C162.156 14.744 163.052 14.512 164.012 14.512Z" fill="black"/>
<defs>
<clipPath id="clip0_1_4272">
<rect width="40" height="40" fill="white"/>
</clipPath>
</defs>
</svg>
